<svg id="Layer_5" enable-background="new 0 0 64 64" height="512" viewBox="0 0 64 64" width="512" xmlns="http://www.w3.org/2000/svg"><g><path d="m16 21v-2c-.551 0-1 .449-1 1s.449 1 1 1z"/><path d="m24 21v-2h-.764c-1.522 0-3.046-.339-4.427-.982-.46.089-.809.496-.809.982v2c0 1.654 1.346 3 3 3s3-1.346 3-3z"/><path d="m26 19v2c.551 0 1-.449 1-1s-.449-1-1-1z"/><path d="m16.78 17c.549-.609 1.337-1 2.22-1h.236l.211.105c1.17.585 2.48.895 3.789.895h1.764 1c.263 0 .514.045.757.109.154-.468.243-.957.243-1.452 0-2.568-2.089-4.657-4.657-4.657h-2.687c-2.567 0-4.656 2.089-4.656 4.657 0 .495.089.984.243 1.452.243-.064.494-.109.757-.109z"/><path d="m21 39c.821 0 1.638-.073 2.448-.183.154-.722.354-1.425.585-2.116-.997.191-2.009.299-3.033.299-8.822 0-16-7.178-16-16s7.178-16 16-16 16 7.178 16 16c0 1.024-.108 2.037-.299 3.032.691-.23 1.395-.43 2.117-.585.11-.808.182-1.626.182-2.447 0-9.925-8.075-18-18-18s-18 8.075-18 18 8.075 18 18 18z"/><path d="m19.461 25.732c-.056.098-.116.193-.18.285l1.719 2.309 1.721-2.31c-.064-.092-.124-.187-.181-.284-.488.16-.999.268-1.54.268-.54 0-1.051-.108-1.539-.268z"/><path d="m13.406 28.332c-1.255.254-2.176 1.257-2.358 2.5 2.539 2.57 6.061 4.168 9.952 4.168 1.349 0 2.678-.198 3.959-.575 1.058-2.216 2.503-4.208 4.262-5.884-.201-.09-.408-.165-.627-.209l-3.616-.73c-.257-.073-.497-.175-.729-.289l-3.249 4.361-3.242-4.352c-.211.103-.428.196-.659.261z"/><path d="m43 25c-9.925 0-18 8.075-18 18s8.075 18 18 18 18-8.075 18-18-8.075-18-18-18zm11.949 12.561c-.113.625-.456 1.188-.905 1.637l-13.923 13.923c-.562.563-1.325.879-2.121.879s-1.559-.316-2.121-.879l-5.923-5.923c-.449-.449-.792-1.012-.905-1.637-.181-1.004.13-1.985.828-2.682.697-.698 1.678-1.009 2.682-.828.625.113 1.188.456 1.637.905l3.802 3.801 11.802-11.801c.449-.449 1.012-.792 1.637-.905 1.004-.181 1.985.13 2.682.828.698.697 1.01 1.678.828 2.682z"/><path d="m34.422 24.961c.377-1.281.578-2.61.578-3.961 0-7.72-6.28-14-14-14s-14 6.28-14 14c0 2.988.949 5.753 2.549 8.029.669-1.338 1.908-2.344 3.461-2.658l3.616-.73c.446-.13.842-.461 1.095-.897-.549-.481-1-1.067-1.297-1.744h-.424c-1.654 0-3-1.346-3-3 0-.64.205-1.23.547-1.718-.355-.828-.547-1.721-.547-2.625 0-3.671 2.986-6.657 6.657-6.657h2.687c3.67 0 6.656 2.986 6.656 6.657 0 .904-.192 1.798-.547 2.626.342.487.547 1.077.547 1.717 0 1.654-1.346 3-3 3h-.424c-.297.676-.748 1.262-1.296 1.743.256.438.668.774 1.17.917l3.54.712c.668.135 1.289.41 1.842.792 1.111-.855 2.312-1.593 3.59-2.203z"/><path d="m57.562 27.223 1.967-.364c-.132-.709-.293-1.422-.479-2.118l-1.932.518c.173.645.322 1.306.444 1.964z"/><path d="m42 10c.866 0 1.641-.374 2.19-.964 5.708 3.041 10.178 8.204 12.331 14.297l1.886-.666c-2.337-6.614-7.21-12.21-13.426-15.473.004-.065.019-.128.019-.194 0-1.654-1.346-3-3-3s-3 1.346-3 3 1.346 3 3 3z"/><path d="m6.438 36.777-1.967.364c.132.709.293 1.422.479 2.118l1.932-.518c-.173-.645-.322-1.306-.444-1.964z"/><path d="m22 54c-.866 0-1.641.374-2.19.964-5.707-3.041-10.177-8.204-12.331-14.297l-1.886.666c2.337 6.614 7.21 12.21 13.426 15.473-.004.065-.019.128-.019.194 0 1.654 1.346 3 3 3s3-1.346 3-3-1.346-3-3-3z"/></g></svg>