<svg id="Layer_5" enable-background="new 0 0 64 64" height="512" viewBox="0 0 64 64" width="512" xmlns="http://www.w3.org/2000/svg"><g><path d="m22.36 22.953-1.775-.666c-.193-.072-.368-.173-.532-.288h-2.489l1.36 17h2.153z"/><path d="m16.557 41h-10.864l-2.25 6h10.864z"/><path d="m10.146 33.482c1.788 1.251 2.854 3.299 2.854 5.48v.038h3.917l-1.36-17h-2.557c-2.206 0-4-1.794-4-4s1.794-4 4-4h.23c2.07 0 3.821 1.617 3.987 3.681l.186 2.319h1.597c0-1.013.638-1.933 1.586-2.288l7.232-2.712h8.489c-2.08-7.021-8.64-12-16.063-12h-.488c-9.239 0-16.756 7.517-16.756 16.755 0 5.463 2.672 10.595 7.146 13.727zm14.854-26.482h2v2h-2zm-4 0h2v2h-2zm-4 0h2v2h-2zm-4 0h2v2h-2zm-8 13h2c0 .619.044 1.244.132 1.859l-1.98.281c-.101-.707-.152-1.428-.152-2.14zm2.539 3.715c.948 3.191 3.066 5.872 5.962 7.546l-1.002 1.731c-3.34-1.932-5.782-5.024-6.878-8.708z"/><path d="m6 49v9c0 1.654 1.346 3 3 3h9v-18.151l-2.307 6.151z"/><path d="m27 38.962c0-2.181 1.066-4.229 2.854-5.48 2.971-2.079 5.168-5.06 6.296-8.482h-8.331l-3.51-1.316-1.226 15.316h3.917z"/><path d="m27 17.443-5.712 2.142c-.173.065-.288.231-.288.415s.115.35.287.415l5.713 2.142z"/><path d="m13.23 16h-.23c-1.103 0-2 .897-2 2s.897 2 2 2h2.396l-.173-2.16c-.081-1.031-.957-1.84-1.993-1.84z"/><path d="m29 17v2h12v-1.721-.279z"/><path d="m29 21v2h12v-.279-1.721z"/><path d="m58.537 22.486.169-.441 2.294-.766v-2.559l-2.294-.765-.169-.441c-.05-.128-.1-.255-.155-.379l-.194-.433 1.081-2.162-1.809-1.809-2.162 1.081-.433-.194c-.123-.055-.248-.105-.375-.153l-.445-.168-.766-2.297h-2.559l-.766 2.298-.445.168c-.127.048-.252.098-.375.153l-.433.194-2.162-1.081-1.809 1.809 1.081 2.162-.194.433c-.056.125-.105.251-.155.379l-.169.441-2.293.765v2.559l2.294.765.169.441c.05.128.1.255.155.379l.194.433-1.081 2.162 1.809 1.809 2.162-1.081.433.194c.123.055.248.105.375.153l.445.168.766 2.297h2.559l.766-2.298.445-.168c.127-.048.252-.098.375-.153l.433-.194 2.162 1.081 1.809-1.809-1.081-2.162.194-.433c.054-.123.104-.25.154-.378zm-6.537 1.514c-2.209 0-4-1.791-4-4s1.791-4 4-4 4 1.791 4 4-1.791 4-4 4z"/><path d="m21.443 41 2.25 6h12.864l-2.25-6z"/><path d="m20 42.849v18.151h11c1.654 0 3-1.346 3-3v-9h-11.693zm6 14.151h6v2h-6z"/></g></svg>