<svg id="Layer_1" enable-background="new 0 0 480 480" height="512" viewBox="0 0 480 480" width="512" xmlns="http://www.w3.org/2000/svg">
    <path d="m291.875 77v-52.999c0-7.127 8.617-10.697 13.657-5.657l60.999 60.999c5.04 5.04 1.47 13.657-5.657 13.657h-52.999c-8.836 0-16-7.163-16-16zm85.003 349c4.418 0 8 3.582 8 8v14c0 17.673-14.327 32-32 32h-302c-17.673 0-32-14.327-32-32v-416c0-17.673 14.327-32 32-32h216.997c4.418 0 8 3.582 8 8v69c0 17.673 14.327 32 32 32h69.003c4.418 0 8 3.582 8 8v2.045c0 5.582-5.581 9.468-10.799 7.486-45.679-17.35-97.257 16.327-97.257 67.522v1.129c0 3.649-2.467 6.847-6.004 7.739-19.045 4.804-33.692 20.974-35.91 41.332l-13.995 128.552c-3.091 28.385 19.181 53.195 47.718 53.195zm-199.88-300c0 4.418 3.582 8 8 8h55c4.418 0 8-3.582 8-8s-3.582-8-8-8h-55c-4.418 0-8 3.582-8 8zm-31.123 232c0-13.234-10.767-24-24-24h-16c-13.233 0-24 10.766-24 24v16c0 13.234 10.767 24 24 24h16c13.233 0 24-10.766 24-24zm0-120c0-13.234-10.767-24-24-24h-16c-13.233 0-24 10.766-24 24v16c0 13.234 10.767 24 24 24h16c13.233 0 24-10.766 24-24zm.115-119.996c.026-13.284-10.715-24.047-24-24.047h-16.146c-13.233 0-24 10.766-24 24v16.085c0 13.234 10.767 24 24 24h16.115c13.209 0 23.976-10.746 24-23.954zm57.008 247.996c0-4.418-3.582-8-8-8h-10c-4.418 0-8 3.582-8 8s3.582 8 8 8h10c4.418 0 8-3.582 8-8zm12-120c0-4.418-3.582-8-8-8h-22c-4.418 0-8 3.582-8 8s3.582 8 8 8h22c4.418 0 8-3.582 8-8zm214.12 164h-160.49c-18.96 0-33.872-16.478-31.81-35.46l14-128.56c1.77-16.26 15.44-28.53 31.81-28.53h10.19v-23.4c0-31.189 25.623-56.52 56.929-56.043 30.755.468 55.181 26.135 55.181 56.894v58.739c0 4.595 3.869 8.282 8.529 7.983 4.253-.273 7.471-3.993 7.471-8.255v-23.558c0-6.489 7.316-10.273 12.623-6.539 7.286 5.126 12.354 13.242 13.387 22.709l13.99 128.56c2.074 18.891-12.775 35.46-31.81 35.46zm-104.3-184.55c0-4.418 3.582-8 8-8h56.11v-23.4c0-22.406-18.504-40.579-41.03-40.038-21.864.525-39.08 18.931-39.08 40.802v58.554c0 4.262 3.218 7.982 7.471 8.255 4.66.299 8.529-3.388 8.529-7.983z"/>
</svg>